<svg data-v-0dd9719b="" version="1.0" xmlns="http://www.w3.org/2000/svg" xmlns:xlink="http://www.w3.org/1999/xlink" width="100%" height="100%" viewBox="0 0 340.000000 250.000000" preserveAspectRatio="xMidYMid meet" color-interpolation-filters="sRGB" style="margin: auto;"> <rect data-v-0dd9719b="" x="0" y="0" width="100%" height="100%" fill="#fff" fill-opacity="1" class="background"></rect> <rect data-v-0dd9719b="" x="0" y="0" width="100%" height="100%" fill="url(#watermark)" fill-opacity="1" class="watermarklayer"></rect> <g data-v-0dd9719b="" fill="#333" class="icon-text-wrapper icon-svg-group iconsvg" transform="translate(48.58000183510719,91.61547470092773)"><g class="iconsvg-imagesvg" transform="translate(0,0)"><g><rect fill="#333" fill-opacity="0" stroke-width="2" x="0" y="0" width="60" height="66.76904587033451" class="image-rect"></rect> <svg x="0" y="0" width="60" height="66.76904587033451" filtersec="colorsb6827125920" class="image-svg-svg primary" style="overflow: visible;"><svg xmlns="http://www.w3.org/2000/svg" viewBox="-0.035445436835289 0.003571808338165283 55.15544509887695 61.37771987915039"><path d="M55.08 27v-4.39c0-1-.14-1-1-.56q-11.75 6.8-23.53 13.62a2.69 2.69 0 0 0-1.44 2.5v8.68c0 1 .14 1.1 1 .6l23.42-13.53a2.89 2.89 0 0 0 1.55-2.72c-.01-1.41 0-2.81 0-4.2zM25.89 42.53v-4.21a2.67 2.67 0 0 0-1.4-2.6l-5.2-3Q10.07 27.37.86 22c-.65-.38-.8-.22-.79.47v8.42A3.16 3.16 0 0 0 1.85 34c2.81 1.57 5.59 3.21 8.38 4.82L25 47.42c.82.47.86.45.86-.5.04-1.47.03-2.92.03-4.39z" fill="#ffee23"></path><path d="M29.14 32.8l.52-.26 23.88-13.8A2.67 2.67 0 0 0 53.7 14c-1.68-1.13-3.63-1.82-5.28-3a1.23 1.23 0 0 0-1.54 0c-2.05 1.22-4.08 2.46-6.14 3.66-3.35 2-6.72 3.89-10.08 5.82a2.51 2.51 0 0 0-1.5 2.09c-.05 3.33-.02 6.7-.02 10.23zM26 27.46v-4.48a2.62 2.62 0 0 0-1.37-2.45l-16.7-9.65a1 1 0 0 0-1.08 0C5 11.94 3.18 13 1.35 14.06A2.51 2.51 0 0 0 0 16.43a2.82 2.82 0 0 0 1.7 2.44c4.4 2.52 8.79 5.08 13.18 7.61 3.31 1.9 6.61 3.8 9.84 5.83.3.19.65.59 1 .36s.17-.66.17-1c.11-1.41.11-2.81.11-4.21z" fill="#372a44"></path><path d="M55.05 41.4v-3.58c0-1.06-.07-1.09-1-.57l-10.46 6c-4.24 2.44-8.48 4.9-12.72 7.33a2.9 2.9 0 0 0-1.75 2.6v7.43c0 .67.16.89.82.5q11.83-6.8 23.66-13.63a2.74 2.74 0 0 0 1.45-2.58c-.05-1.17 0-2.33 0-3.5zM25.92 56.84v-3.49a2.71 2.71 0 0 0-1.48-2.57Q12.75 44 1 37.25c-.81-.47-1-.38-1 .55 0 2.09.13 4.2 0 6.27a3.79 3.79 0 0 0 2.26 4c3.31 1.78 6.52 3.74 9.78 5.62L24.84 61c.91.53 1.07.45 1.08-.6s0-2.4 0-3.56z" fill="#ffee23"></path><path d="M26 8.74V.85c0-1-.06-1-.91-.54l-10.39 6c-2.12 1.23-2.15 3.62 0 4.86 3.5 2.05 7 4.06 10.54 6.11.68.4.79.17.79-.48C26 14.12 26 11.43 26 8.74zM29.11 8.83v8c0 .56 0 .91.73.52 3.63-2.12 7.28-4.21 10.91-6.34a2.47 2.47 0 0 0 1.11-2.77c-.22-1.15-1.06-1.64-2-2.17-3.29-1.88-6.53-3.81-9.79-5.7-1-.56-1-.56-1 .58.03 2.63.04 5.26.04 7.88z" fill="#372a44"></path><path d="M55.08 27v4.21a2.89 2.89 0 0 1-1.55 2.72L30.12 47.45c-.86.5-1 .41-1-.6v-8.68a2.69 2.69 0 0 1 1.44-2.5Q42.33 28.85 54.12 22c.82-.47 1-.39 1 .56v4.39zM25.89 42.53v4.39c0 .95 0 1-.86.5l-14.8-8.56C7.44 37.25 4.66 35.61 1.85 34a3.16 3.16 0 0 1-1.79-3.08c.06-2.81 0-5.61 0-8.42 0-.69.14-.85.79-.47q9.22 5.36 18.45 10.67l5.2 3a2.67 2.67 0 0 1 1.4 2.6c-.04 1.42-.01 2.82-.01 4.23z" fill="#ffee23"></path><path d="M29.14 32.8V22.53a2.51 2.51 0 0 1 1.5-2.09c3.36-1.93 6.73-3.87 10.08-5.82 2.06-1.2 4.09-2.44 6.14-3.66a1.23 1.23 0 0 1 1.54 0c1.65 1.19 3.6 1.88 5.28 3a2.67 2.67 0 0 1-.16 4.75q-11.92 6.92-23.88 13.8zM26 27.46v4.21c0 .34.17.8-.17 1s-.73-.17-1-.36c-3.23-2-6.53-3.93-9.84-5.83-4.47-2.48-8.86-5.09-13.26-7.61A2.82 2.82 0 0 1 0 16.43a2.51 2.51 0 0 1 1.32-2.37C3.18 13 5 11.94 6.85 10.86a1 1 0 0 1 1.08 0l16.66 9.65A2.62 2.62 0 0 1 26 23v4.46z" fill="#008cce"></path><path d="M55.05 41.4v3.5a2.74 2.74 0 0 1-1.45 2.58Q41.78 54.32 30 61.16c-.66.39-.82.17-.82-.5v-7.43a2.9 2.9 0 0 1 1.75-2.6c4.24-2.43 8.48-4.89 12.72-7.33l10.46-6c.9-.52 1-.49 1 .57zM25.92 56.84v3.58c0 1.19-.17 1.13-1.08.6l-12.79-7.38C8.79 51.76 5.58 49.8 2.27 48a3.79 3.79 0 0 1-2.26-4c.12-2-.01-4.11.04-6.2 0-.93.18-1 1-.55Q12.76 44 24.45 50.78a2.71 2.71 0 0 1 1.48 2.57c-.03 1.16-.01 2.32-.01 3.49z" fill="#ffee23"></path><path d="M26 8.74v8.07c0 .65-.11.88-.79.48-3.51-2-7-4.06-10.54-6.11-2.12-1.24-2.09-3.63 0-4.86l10.39-6c.85-.49.9-.46.91.54v7.88zM29.11 8.83V.95c0-1.14 0-1.14 1-.58 3.26 1.89 6.5 3.82 9.78 5.67.94.53 1.78 1 2 2.17A2.47 2.47 0 0 1 40.74 11c-3.63 2.13-7.28 4.22-10.91 6.34-.68.39-.73 0-.73-.52.01-2.68.01-5.33.01-7.99z" fill="#008cce"></path></svg></svg> <!----></g></g> <g transform="translate(67,5.443275451660156)"><g data-gra="path-name" fill-rule="" class="tp-name iconsvg-namesvg" transform="translate(0,0)"><g transform="scale(1)"><g><path d="M21.28-22.21L21.28-22.21Q20.18-23.58 19.23-24.51 18.27-25.44 18.27-25.49L18.27-25.49Q27.74-29.16 33.94-36.33L33.94-36.33 38.72-34.16Q36.06-31.24 31.5-28.05 26.95-24.87 21.28-22.21ZM10.49 3.67L10.49 3.67Q10.04 2.08 9.16-0.13L9.16-0.13Q9.34-0.18 9.98-0.91 10.62-1.64 10.62-3.36L10.62-3.36 10.62-16.42 2.61-16.42 2.61-19.96 10.62-19.96 10.62-36.64 16.5-36.64 16.5-19.96 43.27-19.96 43.27-16.42 26.81-16.42Q31.95-4.91 43.58-1.5L43.58-1.5Q41.99 0.66 41.28 2.21L41.28 2.21Q32.96-0.53 28.32-5.22 23.67-9.91 21.24-16.42L21.24-16.42 16.5-16.42 16.5-2.74 26.55-5.09Q26.55-4.2 26.66-2.99 26.77-1.77 26.81-1.64L26.81-1.64Q20.66-0.04 17.65 0.77 14.65 1.59 13.52 2.01 12.39 2.43 10.49 3.67ZM60.75-1.55L74.12-1.55 74.12-5.53 60.75-5.53 60.75-1.55ZM60.44-14.82L74.78-14.82Q73.01-17.04 72.26-18.23L72.26-18.23 63.1-18.23Q62.26-17.04 60.44-14.82L60.44-14.82ZM60.75-8.1L74.12-8.1 74.12-11.99 60.75-11.99 60.75-8.1ZM60.75 1.37L60.75 3.14 54.87 3.14 54.87-9.82Q53.85-9.03 49.25-6.5L49.25-6.5Q48.45-8.1 47.65-9.12L47.65-9.12Q46.95-9.96 46.95-10.04L46.95-10.04Q52.39-12.79 56.77-18.23L56.77-18.23 46.99-18.23 46.99-21.24 58.89-21.19Q59.07-21.19 60.71-24.65L60.71-24.65 50.84-24.65 50.84-27.43 61.86-27.43Q62.35-28.63 62.88-30.62L62.88-30.62 49.34-30.62 49.34-33.54 63.45-33.54Q63.81-35.22 63.89-36.55L63.89-36.55 69.87-36.42Q69.73-35.44 69.38-33.54L69.38-33.54 85.62-33.54 85.62-30.62 68.76-30.62Q68.45-29.38 67.74-27.43L67.74-27.43 84.25-27.43 84.25-24.65 66.68-24.65Q66.15-23.45 64.96-21.24L64.96-21.24 88.01-21.24 88.01-18.23 77.79-18.23Q82.74-12.39 88.19-10.22L88.19-10.22Q86.68-8.36 85.8-6.73L85.8-6.73Q81.37-8.89 80.18-9.87L80.18-9.87 80.18 2.96 74.12 2.96 74.12 1.37 60.75 1.37ZM92.12 1.06L92.12 1.06 91.46-2.48Q98.32-3.76 108.67-6.11L108.67-6.11 109.03-3.14Q100.27-0.88 92.12 1.06ZM92.79-7.57L92.79-7.57Q92.52-8.89 92.12-10 91.73-11.11 91.73-11.15L91.73-11.15Q93.76-11.64 100.04-20L100.04-20Q98.01-19.73 96.59-19.54 95.18-19.34 94.62-19.18 94.07-19.03 92.48-18.14L92.48-18.14Q92.12-19.56 91.73-20.71 91.33-21.86 91.33-21.9L91.33-21.9Q92.7-22.39 96.42-29.07L96.42-29.07Q98.36-32.52 100.18-37.26L100.18-37.26 105.04-34.91Q102.35-28.98 97.52-22.52L97.52-22.52 102.04-22.96Q103.41-24.96 105.13-28.14L105.13-28.14 109.29-25.49Q105.44-19.42 99.6-12.96L99.6-12.96 109.25-14.69Q109.16-13.94 109.16-11.77L109.16-11.77Q97.3-9.42 95.18-8.76L95.18-8.76Q94.56-8.54 92.79-7.57ZM115.22-1.99L125.84-1.99 125.84-11.33 115.22-11.33 115.22-1.99ZM115.22 1.19L115.22 3.19 109.73 3.19 109.73-14.47 131.5-14.47 131.5 3.01 125.84 3.01 125.84 1.19 115.22 1.19ZM109.07-15.84L109.07-15.84Q108.5-17.26 107.17-19.07L107.17-19.07Q113.94-21.95 114.96-31.5L114.96-31.5 108.32-31.5 108.32-34.69 130.53-34.69Q131.95-34.42 132.12-34.42L132.12-34.42Q131.81-26.64 131.37-23.23L131.37-23.23Q130.93-20 130.22-19.25L130.22-19.25Q128.85-17.7 126.5-17.52L126.5-17.52Q125.31-17.39 123.05-17.39L123.05-17.39 120.53-17.43Q120.49-18.27 120.15-19.42 119.82-20.58 119.73-20.75L119.73-20.75Q122.17-20.53 124.47-20.53L124.47-20.53Q124.78-20.53 125.04-20.75L125.04-20.75Q126.02-21.37 126.46-31.5L126.46-31.5 120.58-31.5Q120.04-26.64 117.88-22.81 115.71-18.98 109.07-15.84ZM176.81-26.55L172.74-23.63Q168.05-28.76 160.88-34.25L160.88-34.25 164.42-36.59Q173.5-30 176.81-26.55L176.81-26.55ZM142.17-23.5L142.17-23.5Q140.84-24.96 138.94-26.68L138.94-26.68Q144.73-29.91 149.73-36.19L149.73-36.19 154.47-34.34Q149.82-28.63 142.17-23.5ZM147.3-14.03L168.01-14.03Q161.02-18.63 157.61-22.52L157.61-22.52Q154.25-18.63 147.3-14.03L147.3-14.03ZM150.44-1.55L165.27-1.55 165.27-10.97 150.44-10.97 150.44-1.55ZM150.44 1.55L150.44 3.23 144.65 3.23 144.65-12.48Q143.41-11.77 139.16-10L139.16-10Q138.41-11.64 137.72-12.77 137.04-13.89 136.99-13.89L136.99-13.89Q142.74-15.8 148.08-19.96 153.41-24.12 157.04-30.13L157.04-30.13 161.28-27.21 160.44-26.11Q167.96-17.74 178.45-14.07L178.45-14.07Q178.41-14.07 177.57-12.99 176.73-11.9 175.75-10.31L175.75-10.31Q172.17-11.73 171.28-12.21L171.28-12.21 171.28 3.19 165.27 3.19 165.27 1.55 150.44 1.55Z" transform="translate(-2.6100001335144043, 37.2599983215332)"></path></g> <!----> <!----> <!----> <!----> <!----> <!----> <!----></g></g> <g data-gra="path-slogan" fill-rule="" class="tp-slogan iconsvg-slogansvg" fill="#333" transform="translate(5,46.93000030517578)"><rect x="0" height="1" y="3.9750003814697266" width="14.205001831054688"></rect> <rect height="1" y="3.9750003814697266" width="14.205001831054688" x="151.63499450683594"></rect> <g transform="translate(17.205001831054688,0)"><g transform="scale(1)"><path d="M8.06-6.05L8.06-6.05L6.94-6.05Q6.52-7.78 4.55-7.83L4.55-7.83Q1.83-7.69 1.73-4.36L1.73-4.36Q1.73-0.80 4.59-0.80L4.59-0.80Q6.56-0.84 7.03-3.19L7.03-3.19L8.16-3.19Q7.64 0.05 4.36 0.14L4.36 0.14Q0.61 0 0.52-4.31L0.52-4.31Q0.70-8.63 4.55-8.81L4.55-8.81Q7.59-8.72 8.06-6.05ZM10.69-5.06L15.19-5.06L15.19-8.58L16.36-8.58L16.36 0L15.19 0L15.19-3.98L10.69-3.98L10.69 0L9.52 0L9.52-8.58L10.69-8.58L10.69-5.06ZM23.81 0L22.97-2.48L19.50-2.48L18.61 0L17.44 0L20.67-8.58L21.98-8.58L25.08 0L23.81 0ZM21.23-7.31L19.88-3.52L22.55-3.52L21.28-7.31L21.23-7.31ZM27.52-8.58L31.83-1.64L31.83-8.58L32.95-8.58L32.95 0L31.64 0L27.28-6.94L27.23-6.94L27.23 0L26.11 0L26.11-8.58L27.52-8.58ZM41.16-3.61L38.53-3.61L38.53-4.59L42.28-4.59L42.28 0L41.53 0L41.25-1.08Q40.27 0.09 38.44 0.14L38.44 0.14Q36.70 0.14 35.77-0.75L35.77-0.75Q34.36-2.06 34.41-4.36L34.41-4.36Q34.73-8.63 38.48-8.81L38.48-8.81Q41.67-8.63 42.14-6L42.14-6L41.02-6Q40.55-7.78 38.44-7.83L38.44-7.83Q35.77-7.64 35.63-4.31L35.63-4.31Q35.63-0.75 38.48-0.75L38.48-0.75Q39.52-0.75 40.27-1.31L40.27-1.31Q41.20-2.06 41.16-3.61L41.16-3.61ZM51.23-6.05L51.23-6.05L50.11-6.05Q49.69-7.78 47.72-7.83L47.72-7.83Q45-7.69 44.91-4.36L44.91-4.36Q44.91-0.80 47.77-0.80L47.77-0.80Q49.73-0.84 50.20-3.19L50.20-3.19L51.33-3.19Q50.81 0.05 47.53 0.14L47.53 0.14Q43.78 0 43.69-4.31L43.69-4.31Q43.88-8.63 47.72-8.81L47.72-8.81Q50.77-8.72 51.23-6.05ZM53.86-5.06L58.36-5.06L58.36-8.58L59.53-8.58L59.53 0L58.36 0L58.36-3.98L53.86-3.98L53.86 0L52.69 0L52.69-8.58L53.86-8.58L53.86-5.06ZM66.98-3.19L66.98-8.58L68.16-8.58L68.16-3.05Q68.02 0.05 64.64 0.14L64.64 0.14Q61.50 0.05 61.36-2.86L61.36-2.86L61.36-8.58L62.53-8.58L62.53-3.19Q62.58-0.84 64.69-0.80L64.69-0.80Q66.98-0.84 66.98-3.19L66.98-3.19ZM71.34-8.58L75.66-1.64L75.66-8.58L76.78-8.58L76.78 0L75.47 0L71.11-6.94L71.06-6.94L71.06 0L69.94 0L69.94-8.58L71.34-8.58ZM88.17-6.09L88.17-6.09L87.09-6.09Q87-7.73 84.94-7.83L84.94-7.83Q83.02-7.78 83.02-6.33L83.02-6.33Q83.02-5.39 84.05-5.25L84.05-5.25L86.48-4.69Q88.41-4.22 88.41-2.34L88.41-2.34Q88.36 0.05 85.03 0.14L85.03 0.14Q83.20 0.14 82.45-0.61L82.45-0.61Q81.52-1.31 81.56-2.77L81.56-2.77L82.69-2.77Q82.73-0.80 85.03-0.75L85.03-0.75Q87.28-0.80 87.33-2.20L87.33-2.20Q87.52-3.38 85.45-3.75L85.45-3.75L83.67-4.13Q81.84-4.64 81.84-6.19L81.84-6.19Q81.98-8.72 84.84-8.81L84.84-8.81Q88.08-8.81 88.17-6.09ZM91.03-5.06L95.53-5.06L95.53-8.58L96.70-8.58L96.70 0L95.53 0L95.53-3.98L91.03-3.98L91.03 0L89.86 0L89.86-8.58L91.03-8.58L91.03-5.06ZM104.16 0L103.31-2.48L99.84-2.48L98.95 0L97.78 0L101.02-8.58L102.33-8.58L105.42 0L104.16 0ZM101.58-7.31L100.22-3.52L102.89-3.52L101.63-7.31L101.58-7.31ZM113.25-4.27L113.25-4.27Q113.06-7.64 110.25-7.83L110.25-7.83Q107.39-7.69 107.25-4.27L107.25-4.27Q107.39-0.94 110.25-0.80L110.25-0.80Q113.06-0.98 113.25-4.27ZM114.42-4.27L114.42-4.27Q114.14 0 110.25 0.14L110.25 0.14Q106.31 0 106.03-4.27L106.03-4.27Q106.27-8.72 110.25-8.81L110.25-8.81Q114.14-8.67 114.42-4.27ZM122.20-3.61L119.58-3.61L119.58-4.59L123.33-4.59L123.33 0L122.58 0L122.30-1.08Q121.31 0.09 119.48 0.14L119.48 0.14Q117.75 0.14 116.81-0.75L116.81-0.75Q115.41-2.06 115.45-4.36L115.45-4.36Q115.78-8.63 119.53-8.81L119.53-8.81Q122.72-8.63 123.19-6L123.19-6L122.06-6Q121.59-7.78 119.48-7.83L119.48-7.83Q116.81-7.64 116.67-4.31L116.67-4.31Q116.67-0.75 119.53-0.75L119.53-0.75Q120.56-0.75 121.31-1.31L121.31-1.31Q122.25-2.06 122.20-3.61L122.20-3.61ZM130.78-3.19L130.78-8.58L131.95-8.58L131.95-3.05Q131.81 0.05 128.44 0.14L128.44 0.14Q125.30 0.05 125.16-2.86L125.16-2.86L125.16-8.58L126.33-8.58L126.33-3.19Q126.38-0.84 128.48-0.80L128.48-0.80Q130.78-0.84 130.78-3.19L130.78-3.19Z" transform="translate(-0.515625, 8.8125)"></path></g></g></g></g></g><defs v-gra="od"></defs></svg>